<svg xmlns="http://www.w3.org/2000/svg" viewBox="0 0 1224 792"><defs><style>.cls-1{fill:#fff;}.cls-2{fill:#1d1d1b;}</style></defs><g id="Capa_2" data-name="Capa 2"><g id="Capa_1-2" data-name="Capa 1"><rect class="cls-1" width="1224" height="792"/><rect class="cls-2" x="671.34" y="370.43" width="10.15" height="50.73"/><path class="cls-2" d="M575,370.44v50.72h-2.38L544.47,393v28.16H534.31V370.44h1.94L564.87,399v-28.6Z"/><path class="cls-2" d="M443.06,370.44v50.72H432.92v-31.3L417.7,405.08l-15.22-15.22v31.3H392.34V370.44h5.06c3.37,3.38,16.67,16.66,20.3,20.28,3.68-3.69,16.84-16.84,20.28-20.28Z"/><path class="cls-2" d="M503.93,370.44v50.72H493.79v-31.3l-15.22,15.22-15.22-15.22v31.3H453.21V370.44h5.06l20.3,20.28,20.28-20.28Z"/><rect class="cls-2" x="514.08" y="370.43" width="10.15" height="50.73"/><path class="cls-2" d="M382.18,370.44c-.63,16.84,5.93,50.84-20.28,50.72-26.19.14-19.69-33.92-20.3-50.72h10.14v30.44a10.15,10.15,0,0,0,20.3,0V370.44Z"/><polygon class="cls-2" points="331.46 370.44 331.46 421.16 321.32 421.16 321.32 400.88 301.02 400.88 301.02 421.16 290.88 421.16 290.88 370.44 301.02 370.44 301.02 390.72 321.32 390.72 321.32 370.44 331.46 370.44"/><path class="cls-2" d="M630.17,390.72c4.55,36.23-49,41.9-50.74,5.08-.77-22.08,28.51-33.83,43.3-17.92l-6.9,6.88c-9.12-9.75-27.09-2.56-26.62,11-.51,17.27,25.35,21.27,30.34,5.08h-9.68V390.72Z"/><path class="cls-2" d="M752.52,371c-3.45-.93-16.57-.38-20.3-.52v50.72h15.22C777.16,422,781.77,376,752.52,371ZM747.44,411h-5.06V380.58C765.25,376.48,770.86,409.28,747.44,411Z"/><path class="cls-2" d="M717.89,400.88l8.68,20.28-11,0-8.68-20.24V390.72h5.06c6.6.1,6.58-10.23,0-10.14H701.77v40.58H691.63V370.44c7.32.71,24.94-2.43,30.44,3.9,8.43,6.85,5.67,22-4.62,25.5Z"/><path class="cls-2" d="M808.31,405.94a15.23,15.23,0,0,1-15.1,15.22A33.94,33.94,0,0,1,779.77,418c1-1.63,4.25-7.06,5.28-8.78a25.67,25.67,0,0,0,7.4,1.78,5.07,5.07,0,0,0,5.7-5c-.84-8.07-12.84-3.49-16.38-10.14-12.78-16.55,7.6-32.31,24.64-22.18-1,1.63-4.23,7-5.26,8.76-6-2.21-12.28-3.56-13.14,3.28C789.18,395.22,807.53,386.67,808.31,405.94Z"/><path class="cls-2" d="M660.93,394.38c7.22-9.53-.56-24.37-12.44-23.94H635.83v30.44h.88v0h14.34c6.58-.09,6.54,10.21,0,10.12h-5.12v10.16C661.73,424.38,673.71,405.76,660.93,394.38Zm-12.44-3.66H646V380.58C653.82,378.65,656.91,389.84,648.49,390.72Z"/><path class="cls-2" d="M869.94,358.08l35.82,75.85H889l-21.65-46.09-23.48,46.09h-17l38.64-75.85Z"/><path class="cls-2" d="M916.84,433.88V358.07H932v75.81Z"/></g></g></svg>