<svg xmlns="http://www.w3.org/2000/svg" viewBox="0 0 1224 792"><defs><style>.cls-1{fill:#1d1d1b;}.cls-2{fill:#fff;}</style></defs><g id="Capa_2" data-name="Capa 2"><g id="Capa_1-2" data-name="Capa 1"><rect class="cls-1" width="1224" height="792"/><rect class="cls-2" x="672.4" y="370.43" width="10.15" height="50.73"/><polygon class="cls-2" points="576.07 370.44 576.07 421.16 573.69 421.16 565.93 413.4 545.53 393 545.53 421.16 535.37 421.16 535.37 370.44 537.31 370.44 545.53 378.66 565.93 399.04 565.93 370.44 576.07 370.44"/><polygon class="cls-2" points="444.12 370.44 444.12 421.16 433.98 421.16 433.98 389.86 425.94 397.9 418.75 405.08 403.54 389.86 403.54 421.16 393.39 421.16 393.39 370.44 398.46 370.44 403.54 375.52 418.75 390.72 433.98 375.5 439.04 370.44 444.12 370.44"/><polygon class="cls-2" points="504.99 370.44 504.99 421.16 494.85 421.16 494.85 389.86 486.81 397.9 479.63 405.08 464.41 389.86 464.41 421.16 454.27 421.16 454.27 370.44 459.33 370.44 464.41 375.52 479.63 390.72 494.85 375.5 499.91 370.44 504.99 370.44"/><rect class="cls-2" x="515.14" y="370.43" width="10.15" height="50.73"/><path class="cls-2" d="M383.24,370.44v30.44a20.29,20.29,0,0,1-40.58,0V370.44H352.8v30.44a10.15,10.15,0,0,0,20.3,0V370.44Z"/><polygon class="cls-2" points="332.52 370.44 332.52 421.16 322.38 421.16 322.38 400.88 302.08 400.88 302.08 421.16 291.94 421.16 291.94 370.44 302.08 370.44 302.08 390.72 322.38 390.72 322.38 370.44 332.52 370.44"/><path class="cls-2" d="M631.23,390.72v5.08a25,25,0,0,1-.52,5.08,25.38,25.38,0,1,1-6.92-23l-6.9,6.88a15.6,15.6,0,1,0,3.72,16.12h-9.68V390.72Z"/><path class="cls-2" d="M753.58,371a25,25,0,0,0-5.08-.52H733.28v50.72H748.5a25,25,0,0,0,5.08-.52,25.35,25.35,0,0,0,0-49.68ZM748.5,411h-5.06V380.58h5.06a15.22,15.22,0,1,1,0,30.44Z"/><path class="cls-2" d="M719,400.88l8.68,20.28-11,0-8.68-20.24V390.72H713a5.07,5.07,0,1,0,0-10.14H702.83v40.58H692.69V370.44H713A15.2,15.2,0,0,1,723.13,397a14,14,0,0,1-4.62,2.86Z"/><path class="cls-2" d="M809.37,405.94a15.23,15.23,0,0,1-15.1,15.22h0c-.1,0-.72,0-1.72-.08a35.76,35.76,0,0,1-11.7-3.1l1.5-2.48,3.78-6.3a25.58,25.58,0,0,0,7.38,1.78h0c.2,0,.42,0,.64,0h.14a5.07,5.07,0,0,0-.14-10.14,15.12,15.12,0,0,1-2.88-.28,15.29,15.29,0,0,1-12.34-14.94A15.2,15.2,0,0,1,794,370.44c.1,0,.72,0,1.7.08a35.93,35.93,0,0,1,11.74,3.1L806,376.1l-3.76,6.28a25.94,25.94,0,0,0-7.54-1.78l-.28,0h-.24a5.07,5.07,0,1,0,0,10.14,15.28,15.28,0,0,1,15.22,15.22Z"/><path class="cls-2" d="M662,394.38a15,15,0,0,0,2.78-8.72,15.16,15.16,0,0,0-7.6-13.16,14.94,14.94,0,0,0-7.62-2.06H636.89v30.44h.88v0h14.34a5.06,5.06,0,1,1,0,10.12H647v10.16h5.12a14.19,14.19,0,0,0,5.06-.9,15.19,15.19,0,0,0,4.82-25.9Zm-12.44-3.66H647V380.58h2.54a5.07,5.07,0,1,1,0,10.14Z"/><path class="cls-2" d="M871,358.08l35.82,75.85H890.05L868.4,387.84l-23.48,46.09h-17l38.64-75.85Z"/><path class="cls-2" d="M917.9,433.88V358.07h15.16v75.81Z"/></g></g></svg>