<svg xmlns="http://www.w3.org/2000/svg" viewBox="0 0 1224 792"><defs><style>.cls-1{fill:#1d1d1b;}.cls-2{fill:#fff;}</style></defs><g id="Capa_2" data-name="Capa 2"><g id="Capa_1-2" data-name="Capa 1"><rect class="cls-1" width="1224" height="792"/><path class="cls-2" d="M611.38,523h0c-24,0-47.64-10.61-65-29.12-18.7-19.95-29-48-29-78.86,0-31.57,10.59-67.76,28.33-96.82C564.83,286.94,589,269,612,269s47.1,17.94,66.21,49.2C696,347.27,706.59,383.47,706.59,415c0,39.69-15.93,64.8-29.29,78.87-17.37,18.3-41.15,28.9-65.24,29.1ZM612,271c-22.31,0-45.84,17.59-64.55,48.24-17.56,28.76-28,64.56-28,95.78,0,30.39,10.1,57.91,28.45,77.5C564.81,510.61,588,521,611.37,521h.68c23.55-.19,46.8-10.57,63.8-28.47,13.11-13.81,28.74-38.47,28.74-77.5,0-31.2-10.5-67-28.09-95.78C657.77,288.59,634.26,271,612,271Z"/></g></g></svg>